<svg width="16" height="16" viewBox="0 0 16 16" fill="none" xmlns="http://www.w3.org/2000/svg">
<g id="car-outline">
<path id="Vector" d="M5.3335 6.66675L10.6668 6.66675" stroke="#272ED7" stroke-width="1.5" stroke-linecap="round" stroke-linejoin="round"/>
<path id="Vector_2" d="M4.6665 9.33325L5.33317 9.33325" stroke="#272ED7" stroke-width="1.5" stroke-linecap="round" stroke-linejoin="round"/>
<path id="Vector_3" d="M10.6665 9.33325L11.3332 9.33325" stroke="#272ED7" stroke-width="1.5" stroke-linecap="round" stroke-linejoin="round"/>
<path id="Vector_4" d="M2 12.0001V7.74393C2 7.47308 2.05502 7.20504 2.16171 6.95609L3.4805 3.87891C3.79566 3.14354 4.51874 2.66675 5.31879 2.66675H10.6812C11.4813 2.66675 12.2043 3.14354 12.5195 3.87891L13.8383 6.95609C13.945 7.20504 14 7.47308 14 7.74393V12.0001M2 12.0001V13.4001C2 13.7315 2.26863 14.0001 2.6 14.0001H4.06667C4.39804 14.0001 4.66667 13.7315 4.66667 13.4001V12.0001M2 12.0001H4.66667M14 12.0001V13.4001C14 13.7315 13.7314 14.0001 13.4 14.0001H11.9333C11.602 14.0001 11.3333 13.7315 11.3333 13.4001V12.0001M14 12.0001H11.3333M4.66667 12.0001H11.3333" stroke="#272ED7" stroke-width="1.5"/>
</g>
</svg>
