<svg width="20" height="20" viewBox="0 0 20 20" fill="none" xmlns="http://www.w3.org/2000/svg">
<path d="M7.02244 10.8386C6.97459 10.8377 6.97459 10.8377 6.92689 10.8333C6.39913 10.7747 6.01407 10.2517 6.06685 9.66525L6.57543 3.461C6.62452 2.91545 7.03765 2.5 7.53103 2.5H11.25C11.3563 2.5 11.4618 2.51959 11.5622 2.55796C12.0638 2.74956 12.3307 3.35673 12.1582 3.91411L10.9174 7.33527L13.2063 7.33529C13.3756 7.33529 13.5419 7.38505 13.6884 7.47952C14.1471 7.77542 14.3031 8.42851 14.0368 8.93825C13.6983 9.60389 10.3569 15.2213 9.16803 17.2168C9.06088 17.3966 8.78648 17.3087 8.79874 17.0997L9.16634 10.8333L7.02244 10.8386Z" stroke="currentColor" stroke-width="1.5" stroke-linecap="round" stroke-linejoin="round"/>
</svg>
